<svg xmlns="http://www.w3.org/2000/svg" viewBox="0 0 449 642">
  <path d="m283.71 205.24-37.11 77.03-.53-.15c-.63-.01-1.01-.09-1.16-.23-.04-.04.02-.3.19-.77l38.73-111.72a.7.7 0 0 0-.66-.93h-.04l-10.47.64a99.12 99.12 0 0 0-13.4 16.5c-1.05 1.63-2.14 2.57-3.26 2.82-1.5.34-3.35.22-5.56-.36 4.12-12.15 7.2-22.47 9.25-30.95 1.7-7.07 3.64-13.33 5.79-18.78.22-.55.4-1.16.53-1.83.64-3.1 1.28-3.44 1.92-1.02a190.72 190.72 0 0 1-3.68 25.57.36.36 0 0 0 .55.37 29.33 29.33 0 0 1 18.18-5.04 1.57 1.57 0 0 0 1.57-1.08 899.41 899.41 0 0 1 43.63-109.45 364.52 364.52 0 0 1 25.17-44.53c.66-1 1.46-1.43 2.39-1.31a.71.71 0 0 1 .55 1l-24.75 56.47c-12.2 28.7-24.04 60.37-35.49 95a25.6 25.6 0 0 0-.9 3.36.57.57 0 0 0 .56.66h.01l5.01-.11h.01a.7.7 0 0 1 .65.93 1306.95 1306.95 0 0 1-14 36.34c-1.48 3.69-2.46 7.7-3.68 11.57zm-18.55-95.51c-2.03.87-3.3 2.58-3.8 5.12a222.55 222.55 0 0 1-4.4 18.12l-13.33 45.77c-1.92 6.51-2.47 11.3-10.11 10.19-3.59-.52-5.94-4.46-9.68-3.12-10.15 3.63-14.82 13.69-19.1 23.86-1.6 3.81-2.96 10.63-5.18 13.86a97.4 97.4 0 0 0-9.76 17.97c-1.45 3.49-5.18 2.47-8.11 2.77a1.9 1.9 0 0 0-.9.33l-4.46 3.05a5.5 5.5 0 0 1-3.35-2.92c-1.43-3.27-2.41-7.81-5.74-8.28-4.23-.6-7.1-2.83-8.59-6.68a49.52 49.52 0 0 1 6.27 1.47c3.06.92 5.14 1.35 6.25 1.29a9.2 9.2 0 0 0 6.54-3.31l.93 1.7c.18.33.4.37.68.1a66.6 66.6 0 0 1 10.75-8.67 1.65 1.65 0 0 0 .58-.65c.36-.74.83-1.55.86-2.37.18-3.75.93-7.38 2.24-10.89a102.98 102.98 0 0 1 11.85-22.59c6.21-8.95 17.3-14.76 27.82-9.7.39.19.68.09.88-.3.33-.67.69-1.64 1.08-2.91l30.64-100.78c4.02-13.7 8.96-26.76 13.72-40.12a.5.5 0 0 1 .95.26l-15.53 77.43zm15.78 163.52a62.19 62.19 0 0 0-8.69 13.87 389.84 389.84 0 0 1-27.91 38.71c-2.27-4.91-5.86-6.8-9.48-10.25a.42.42 0 0 1 .12-.69c5.19-2.21 16.93-7.43 18.76-12.44a1.07 1.07 0 0 0-.08-.92c-1-1.65-1.06-3.15-.17-4.52l1.33-1.85a9.15 9.15 0 0 0 1.09-1.99c4.06-10.15 8-20.14 12.66-30.19 7.87-17 15.29-34.39 23.83-51.05l6.48-12.9a925 925 0 0 1 61.99-93.72c16.93-22.49 34.93-44.42 57.86-61.33a1.12 1.12 0 0 1 1.72.53c.1.27-.12.7-.65 1.3-22.98 25.8-42.7 49.9-59.17 72.3-7.83 10.65-18.44 26.21-31.82 46.67-8.8 13.46-18.13 29.64-27.98 48.54a355.8 355.8 0 0 0-8.72 17.99l-18.19 41.13a17.28 17.28 0 0 0-1.44 6.8v.01a.63.63 0 0 0 1.05.47l7.41-6.47z" fill="#12080b"/>
  <path d="m265.16 109.73 1.6-.14a.53.53 0 0 1 .57.47l.21 2.25a237.54 237.54 0 0 1-6.73 22.86c-1.83 5.24-2.73 11.22-3.85 15.56-1.7 6.54-5.52 18.7-11.48 36.46a5.67 5.67 0 0 0-2.21 3.99c-.02.33.06.62.25.89a7.9 7.9 0 0 1 1.42 3.38c-4-3.12-8.44-3.31-13.31-.57-.29.17-.27.26.06.27 7.87.41 5.01 10.51-.93 11.72-3.67.75-6.09-.75-7.26-4.48-.12-.39-.28-.4-.47-.05-.86 1.6-1.18 3.65-.97 6.14a15.29 15.29 0 0 0-7.13 8.59 362.1 362.1 0 0 1-9.22 23.15c-2.32 5.31-3.49 7.74-9.96 7.14a90.47 90.47 0 0 0-19.42.29l4.46-3.05c.27-.19.57-.3.9-.33 2.93-.3 6.66.72 8.11-2.77a97.4 97.4 0 0 1 9.76-17.97c2.22-3.23 3.58-10.05 5.18-13.86 4.28-10.17 8.95-20.23 19.1-23.86 3.74-1.34 6.09 2.6 9.68 3.12 7.64 1.11 8.19-3.68 10.11-10.19l13.33-45.77a222.55 222.55 0 0 0 4.4-18.12c.5-2.54 1.77-4.25 3.8-5.12z" fill="#fffdef"/>
  <path d="M267.93 135.49c-.64-2.42-1.28-2.08-1.92 1.02a10.5 10.5 0 0 1-.53 1.83 141.96 141.96 0 0 0-5.79 18.78c-2.05 8.48-5.13 18.8-9.25 30.95-.71.17-1.7.02-2.98-.46a.82.82 0 0 0-.97.22l-.33.34c-.34.35-.54.29-.59-.2l-.09-.78c5.96-17.77 9.79-29.92 11.48-36.46 1.12-4.34 2.02-10.32 3.85-15.56a237.54 237.54 0 0 0 6.73-22.86c.6-1.03 1.31-1.27 2.15-.71a.84.84 0 0 1 .39.81l-2.15 23.08zm-21.86 146.63-1.23.26a1.01 1.01 0 0 0-.69.51c-1.76 3.32-2.19 8.28-5.46 11.06a1.66 1.66 0 0 1-.78.37l-8.57 1.59c-3.42-1.86-4.67-5.11-2.36-8.59 2.16-3.25 4.86-5.36 6.4-9.16a424.48 424.48 0 0 0 9.94-27.23l2.61-5.63a77.63 77.63 0 0 0 2.31-5.72l21.89-58.92c1.26-3.33 3.58-6.75 4.95-10.43a.57.57 0 0 0-.29-.77 3.43 3.43 0 0 0-2.13-.35l10.47-.64h.04a.7.7 0 0 1 .66.93L245.1 281.12c-.17.47-.23.73-.19.77.15.14.53.22 1.16.23z" fill="#ff572e"/>
  <path d="M272.66 169.11c.82-.1 1.53.02 2.13.35a.57.57 0 0 1 .29.77c-1.37 3.68-3.69 7.1-4.95 10.43l-21.89 58.92a77.63 77.63 0 0 1-2.31 5.72l-2.61 5.63a60.33 60.33 0 0 1-17.24 4.49 1.06 1.06 0 0 0-.87.63l-1.99 4.6a.55.55 0 0 0 .5.76h.07c2.29-.27 3.79.43 4.51 2.12 2.08 4.91-5.33 9.12-9.12 9.81a14.2 14.2 0 0 0-3.53 1.23.89.89 0 0 0-.53.78c-.45 7.03-3.47 12.7-9.71 16.3-10.16 5.84-23.94 5.76-32-3.64a1.6 1.6 0 0 0-2.26-.16l-.01.01a13.44 13.44 0 0 0-3.66 5.27.85.85 0 0 1-.31.37l-4.37 2.92a1.6 1.6 0 0 0 .63 2.89l4.49.71a1.01 1.01 0 0 0 1.16-.82l1.35-7.82a1.5 1.5 0 0 1 1.47-1.24c.3 0 .6.1.84.26a43.42 43.42 0 0 0 8.2 4.37c2.58 1.05 2.76 5.36 5.59 6.91a103.11 103.11 0 0 1 8.51 5.18 2.87 2.87 0 0 0 3.42-.15 7.4 7.4 0 0 1 4.38-1.73c.3-.01.5.1.63.36 1.42 2.78 1.74 7.14-1.72 7.89a86.5 86.5 0 0 1-13.57 1.66c-3.06.16-3.45 1.43-4.74 3.8-2.5 4.59-9.56 9.38-15.12 6.89a32.15 32.15 0 0 0-2.65-1.06c-.36-.13-.59 0-.68.37-.7 2.8-2.45 3.68-5.27 2.63-.89-.33-1.33-.02-1.32.93a13.05 13.05 0 0 1-3.4 9.04.43.43 0 0 0 .55.64c2.41-1.56 4.45-2.87 7.43-2.91 9.35-.13 14.82 4.28 16.41 13.21.83 4.65 4.5 5.13 5.28 9.78a.98.98 0 0 1-.32.9c-.9.8-2.22 1.7-3.98 2.7-5.06 2.9-10.37 6.11-15.79 7.56a51.33 51.33 0 0 1-21.2 1.16c-4.33-.65-6.18-4.44-7.37-8.21-1.25-3.97-3.84-2.9-6.98-2.6-.35.03-.6-.11-.74-.42-1.88-3.81-1.5-10.32-1.73-14.57-.09-1.63-.75-2.48-2-2.55a1.8 1.8 0 0 0-1.28.44c-5.11 4.44-10.05 2.13-15.45-.05a.97.97 0 0 0-1.06.22l-3.35 3.39a1.38 1.38 0 0 0 .72 2.32c8.44 1.67 16.98 4.85 21.74 12.33 2.54 4 4.2 6.24 5.62 9.69.13.3.35.57.63.76a23.5 23.5 0 0 0 5.43 2.68c2.43.83 4.22 2.05 6.44 3.09 4.91 2.3 9.86 1.08 14.26 5.15a67.29 67.29 0 0 1 7.05 7.56.48.48 0 0 1-.61.71c-4.81-2.79-12.76-6.63-17.56-2.34-4.77 4.27-7.42 6.93-13.4 7.43a85.05 85.05 0 0 1-18.5-.48c-3.97-.54-6.22-3.23-8.68-6.12a1.33 1.33 0 0 0-2.22.32 1.3 1.3 0 0 0-.11.58c.25 6.83-2.73 11.42-8.93 13.78-5.56 2.13-7.5-1.97-12.33-1.54-2.51.22-7.58 1.82-7.47 4.9.15 4.31 3.61 4.59 6.64 2.77 10.63-6.36 12.81-1.73 18.26 6.34a1.72 1.72 0 0 0 2.83.03c2.57-3.66 5.76-6.78 10.17-7.92 9.26-2.41 13.32 2.85 17.81 10.12a1.72 1.72 0 0 0 2.65.34c4.73-4.53 4.46-8.27 12.15-9.25 4.75-.6 8.5.35 11.23 2.88.6.72.88 1.09 1.89 1.06 4.97-.14 7.9 2.4 8.78 7.63-2.31 4.35-6.04 7.07-11.19 8.15-.35.07-.53.3-.53.66.07 5.13.13 7.99-4.44 10.97-2.6 1.69-10.63 5.97-13.38 3.58a14.55 14.55 0 0 0-5.5-3.13 1.36 1.36 0 0 0-1.7 1.3c0 .43.2.83.53 1.08 3.48 2.59 4.65 8.23-.46 9.93a1.39 1.39 0 0 1-1.04-.06 10.77 10.77 0 0 0-7.84-.67.66.66 0 0 0-.5.64c0 .36.3.66.66.66h.03a65.6 65.6 0 0 1 3.11.02c4.05.11 5.85 2.73 10.29.98a66.25 66.25 0 0 1 3.52-1.29 1.38 1.38 0 0 1 .94.01 9.17 9.17 0 0 1 4.4 3.29c3.27 4.53 6.31 1.66 10.06-.08 4.27-1.99 8.05-1.46 12.02.97 1.73 1.06 5.74 4.12 7.74 3.1a12.5 12.5 0 0 1 10.85-.45c3.42 1.38 2.95 5.26 3.04 8.29 0 .33.1.64.29.91a16.36 16.36 0 0 1 2.31 14.18.7.7 0 0 0 .59.89c2.9.37 5.06 1.08 6.48 2.11.26 5.52-2.35 7.16-5.28 10.61a1 1 0 0 0-.21.93l.12.49a.67.67 0 0 0 1.13.29c5.01-5.24 9.96-8.75 17.27-5.07l.04.02a1.45 1.45 0 0 0 1.9-.68l.01-.04c2.31-5.26 8.44-10.05 12.61-14.25l6.97.19c.33 0 .62-.1.85-.33 3.14-2.99 6.46-7.39 11.24-4 1.03.73 1.72 2.06 2.51 3.05a1.11 1.11 0 0 0 1.72.02l4.66-5.68c3.48.51 6.63-1 9.46-4.53a42.18 42.18 0 0 0 6.98-10.12 3.25 3.25 0 0 1 3-1.89.96.96 0 0 1 .83.38c3.6 4.62 7.17 1.5 10.38-1.47a1.1 1.1 0 0 1 .88-.3c4.05.38 9.08.04 11.62 3.75a13.38 13.38 0 0 0 2.37 2.86 23.5 23.5 0 0 0 7.01 3.58c.32.1.6.28.82.53a46.8 46.8 0 0 0 11.74 9.48c1.83 1.05 2.86 2.55 4.46 3.91.27.23.61.35.96.35 2.31 0 4.84-.61 7.58-1.83 5.55-2.48 5.03-6.44 5.41-11.74.03-.35.22-.51.57-.48 3.46.35 15.5-.65 15.76-5.83.17-3.35.41-6.68.73-10 .85-8.73 10.51-2.73 14.68-7.86a7.4 7.4 0 0 0 1.65-3.38l5.78 4.24c2.64 1 4.1 3.23 4.38 6.7a8.35 8.35 0 0 0-.32 3.38c.04.34.22.58.53.73 1.8.85 2.11 2.4.91 4.66l-3.14 2.03a.84.84 0 0 0-.38.81c.32 2.8 1.04 4.99-.01 8a1 1 0 0 1-.63.62 15.3 15.3 0 0 1-9.26.25 1.71 1.71 0 0 0-2.13 1.31c-.8 4.02-3.12 6.53-6.95 7.54a1.52 1.52 0 0 0-1.03 2.03c1.24 3.12 1.17 5.04-1.22 7.59a20.54 20.54 0 0 1-8.36 5.59c-.9.3-1.31.93-1.23 1.88.27 3.4-.79 5.34-3.18 5.84-5.67 1.17-7.47-2.21-10.35-6.05a1.78 1.78 0 0 0-2.72-.15 19 19 0 0 1-7.33 4.84c-.32.12-.6.32-.8.58l-5.51 7.01c-.66.85-.93 1.66-.8 2.43.06.36.38.63.75.63a.76.76 0 0 0 .75-.64c.88-5.95 6.7-5.32 10.21-2.2 4.84 4.3 6.74 9.52 5.71 15.69-.69 4.15-1.45 3.18-4.62 4.63-.35.16-.49.43-.42.8l.29 1.61c.42 3.44-.74 5.72-3.49 6.85-14.99 6.17-11.69-17.72-23.19-15.59a1.34 1.34 0 0 0-.76.44 11.5 11.5 0 0 1-9.84 4.07 1.42 1.42 0 0 0-1.05.39 13.02 13.02 0 0 0-4.1 8.51.5.5 0 0 0 0 .16.53.53 0 0 0 .79.34c23.45-13.72 16.96 22.56-.65 14.63a.9.9 0 0 0-1.27.91c.49 4.95-.01 9.94-1.49 14.98-1.15.58-2 1.37-2.52 2.37-1.54.63-3.78.93-6.71.89-8.09-.11-5.45-6.72-3.23-10.95a.99.99 0 0 0-1.27-1.37 13.16 13.16 0 0 1-12.23-.53.9.9 0 0 0-1.32.72c-.39 5.22-3.18 8.24-8.37 9.05a1.2 1.2 0 0 1-.89-.19c-4.87-3.26-7.49-7.73-7.85-13.41-.17-2.78-.2-6.45 1.28-8.5a20.2 20.2 0 0 0 2.95-5.35c.56-1.72 1.32-2.42 2.48-3.61.24-.25.2-.45-.12-.6-4.17-1.86-6.72-4.93-7.66-9.21-1.19-5.39 2.8-10.57.25-15.89l-2.76-5.69a.57.57 0 0 0-1.08.22 18.31 18.31 0 0 1-6.33 13.07.58.58 0 0 0 .06.91 24.85 24.85 0 0 1 7.9 8.65c1.78 3.18 3.7 6.28 5.78 9.29.19.27.28.57.28.9.03 2.56-1.84 6.55-4.85 5.44-1.87-.69-3.18-3.64-4.61-5.31a1.18 1.18 0 0 0-.93-.4 8.7 8.7 0 0 0-5.67 2.27.87.87 0 0 0 .11 1.37c1.98 1.26 3.06 2.88 3.25 4.86-2.73 3.11-5.85 5.06-9.36 5.83-8.66 1.91-10.07-4.24-8.4-11.22a.96.96 0 0 0-.25-.91 5.6 5.6 0 0 0-5.64-1.55 1.13 1.13 0 0 0-.82.79c-1.74 5.8-4.03 10.78-10.91 8.88a1.92 1.92 0 0 1-.9-.56 8.14 8.14 0 0 0-3.22-2.25.69.69 0 0 0-.93.64c0 3.75.81 7.18 2.46 10.31 1.45 2.75 2.09 4.56.92 7.24-.99 2.26-4.13 3.52-4.86 5.76l-2.31 7.34c-4.21 2.11-5.49-.03-8.77-1.95a.54.54 0 0 0-.8.35c-.86 4.04-3.61 8.74-8.15 9-4.89.28-7.51-5.11-4.31-8.91a1.2 1.2 0 0 0-.39-1.83c-3.98-1.92-7.12-5.32-6.46-10.05 1.1-7.97 2.53-14.93 7.62-21.24a12.02 12.02 0 0 0 2.19-4.73.55.55 0 0 0-.54-.67h-.04c-3.24.26-7 2.31-8.03-2.41a.83.83 0 0 0-1.6-.1 9.18 9.18 0 0 1-3.36 4.41 93.04 93.04 0 0 1-13.69 8.37 1.1 1.1 0 0 0-.29 1.74 105.57 105.57 0 0 0 6.37 5.99c4.3 3.73 5.75 7.47 3.12 12.67a1.7 1.7 0 0 1-.75.76 6.1 6.1 0 0 1-6.03-.03.5.5 0 0 0-.73.43c-.03 3.85-2.05 5.63-6.07 5.35-4.86-.34-7.24-4.64-8.11-8.9a.81.81 0 0 0-.83-.65l-2.91.13a.88.88 0 0 0-.81.68c-.88 3.82-1.29 9.02-7.01 7.63-2.86-.7-4.84-4.01-6.44-6.42a.61.61 0 0 0-.92-.11 20.35 20.35 0 0 0-5.13 7.26 1.38 1.38 0 0 0 .03 1.13 17.6 17.6 0 0 1 1.59 10.3c-.35 2.41-1.33 3.76-2.92 4.04l-3.65.12a49.78 49.78 0 0 0-4.83-15.3 8.47 8.47 0 0 0-2.96-3.52 12.7 12.7 0 0 0-4.46-1.76c-.32-.07-.48.06-.49.39l-.1 2.38c.17-3.67-.68-6.35-2.54-8.05-.75-.69-2.24-1.22-4.47-1.6a23.6 23.6 0 0 1-5.14-1.49c-2.12-6.97 16.47-2.18 13.35-16.57a219.54 219.54 0 0 0-3.22-13.26c-1.57-5.45 3.05-9.93 7.7-11.98a3.2 3.2 0 0 0 1.86-2.44.92.92 0 0 0-.24-.83c-2.88-3.03-6.1-3.82-9.67-2.39-4.01 1.62-5.54 5.46-10.37 5.74-3.37.21-8.72-.49-11.15 1.55-2.46 2.07-5.24 5.19-8.45 5.29-5.76.19-9.31-7.11-4.24-11.32a328.88 328.88 0 0 0 11.16-9.71 4.55 4.55 0 0 0 1.51-3.92 1.35 1.35 0 0 0-.37-.83 13.32 13.32 0 0 1-3.91-8.11 41.11 41.11 0 0 1 1.32-14.8c.43-1.63.55-3.12.35-4.47-.64-4.26-1.46-6.65.47-11.5.51-1.28-.24-3.01-1.58-3.69-5.67-2.85-9.7-1.11-14.97 1.38a1.22 1.22 0 0 1-.98.03c-4.92-1.97-8.1-10.07-8.61-14.74a1.14 1.14 0 0 1 .34-.94c2.81-2.74 7.33-3.21 10.94-4.49 1.85-.65 2.45-1.8 1.8-3.44-1.25-3.15-1.64-6.07-1.17-8.75.37-2.11.4-3.94-1.18-5.2-2.61-2.09-6.28-4.18-5.57-7.18.07-.3.26-.56.52-.73 3.2-2.04 4.84-4.78 4.93-8.23.13-4.95-3.33-13.9 4.34-15.2 5.77-.97 7.02 5.05 10.24 8.02.25.23.6.33.93.29 3.55-.44 5.54-3.71 6.82-6.65.13-.31.4-.55.71-.66 2.63-.9 4.8-.7 5.92-4.11.1-.3.05-.58-.15-.83l-2.83-3.52a1.42 1.42 0 0 1-.32-.91c-.03-3.74-.9-7.8-2.62-12.17-1.74-4.44-.77-8.1 2.92-10.96 2.84-2.21-1.13-7.73-2.36-9.78a2.52 2.52 0 0 1 .65-3.3c3.09-2.3 5.39.43 7.08 2.68 1.01 1.36 1.94 1.78 3.32 2.6a.89.89 0 0 1 .46.83c-.11 5.15 2.01 8.88 6.38 11.21 1.71.91 3.39.27 3.74-1.64a102.7 102.7 0 0 1 3.32-13.62c1.32-4 1.19-7.8-.39-11.44-1.67-3.85-5.03-5.1-8.94-5.51a.92.92 0 0 1-.75-.55c-1.75-3.95 3.56-13.62 8.06-12.59l6.34 1.41a.87.87 0 0 0 .88-.33l1.44-1.99a.73.73 0 0 1 1.27.14l1.1 2.63a2.44 2.44 0 0 0 2.66 1.45c3.38-.58 6.74-.32 10.09.79 2.6.87 4.48 1.31 5.62 1.33 6.21.13 14.16-3.59 15.78-10.17.97-3.95-.35-8.17-1.65-11.93-.95-2.75-1.42-4.66-1.41-5.73.03-6.12 5.06-8.57 9.88-10.89 3.72-1.78.46-7.35-1.15-9.29a1.41 1.41 0 0 1 .53-2.19c3.15-1.36 5.85-2.66 6.72-6.29a64.78 64.78 0 0 0 1.76-16.19c-.08-4.71-4.12-8.65-3.67-13.16.28-2.73 2.14-4.27 5.57-4.62l6.39-.64c1.5 3.85 4.36 6.08 8.59 6.68 3.33.47 4.31 5.01 5.74 8.28a5.5 5.5 0 0 0 3.35 2.92 90.47 90.47 0 0 1 19.42-.29c6.47.6 7.64-1.83 9.96-7.14a362.1 362.1 0 0 0 9.22-23.15 15.29 15.29 0 0 1 7.13-8.59c.23 6.05 3.05 10.2 8.48 12.44 7.67 3.18 16.24-.75 19.51-8.18 2.68-6.11.98-11.88-5.11-17.29a7.9 7.9 0 0 0-1.42-3.38 1.36 1.36 0 0 1-.25-.89 5.67 5.67 0 0 1 2.21-3.99l.09.78c.05.49.25.55.59.2l.33-.34a.8.8 0 0 1 .97-.22c1.27.48 2.27.63 2.98.46 2.21.58 4.07.7 5.56.36 1.12-.25 2.2-1.2 3.26-2.82a99.12 99.12 0 0 1 13.4-16.5zM79.56 449.88a2.72 2.72 0 0 0-2.19 2.93l.24 2.4a2.72 2.72 0 0 0 2.7 2.45c.44 0 .89-.1 1.28-.32l2.38-1.29a2.71 2.71 0 0 0 .93-3.95l-1.02-1.44a2.71 2.71 0 0 0-2.72-1.09l-1.6.31zm223.2 31.63c0-3.6-2.96-6.55-6.55-6.55a6.59 6.59 0 0 0-6.55 6.55 6.59 6.59 0 0 0 6.55 6.55 6.59 6.59 0 0 0 6.55-6.55zm-145.5 5.52-.37-.81a.86.86 0 0 0-.78-.5c-8.3-.04-14.39-1.84-18.35-9.71a1.77 1.77 0 0 0-1.58-.98c-.81 0-1.52.56-1.72 1.34-2.87 11.38-18.65 12.74-21.69.79a.62.62 0 0 0-.14-.27.64.64 0 0 0-1.07.21c-1.72 4.59-5.21 3.59-8.99 4.19a.62.62 0 0 0-.52.6 20.63 20.63 0 0 1-3.14 10.84c-2.3 3.68-2.87 7.92-4.28 11.99a.5.5 0 0 0 .41.66c7.78.92 13.33 2.58 16.52 10.28 1.49 3.6 1.57 8.53 1.95 12.75.05.5.32.93.74 1.19 6.74 4.18 11.02 1.01 13.09-5.31 1.51-4.58 2.99-9.5 5.22-13.3 7.56-12.92 22.69-17.34 33.19-27.1.25-.23.25-.46-.02-.67-.35-.28-.7-.3-1.04-.04a36.88 36.88 0 0 1-6.68 4.13c-.35.16-.6.07-.75-.28zm18.46 27.26c1.87 2.08 3.97 4.61 7.08 4.16a.57.57 0 0 0 .25-1.03 13.54 13.54 0 0 1-5.78-9.74 1.18 1.18 0 0 0-2.04-.65 9.82 9.82 0 0 0-2.29 4.23 1.01 1.01 0 0 0 .28 1c.82.8 1.78 1.22 2.5 2.03z" fill="#ffdb8b"/>
  <path d="M177.71 229.22a9.2 9.2 0 0 1-6.54 3.31c-1.1.06-3.19-.37-6.25-1.29a50.4 50.4 0 0 0-6.27-1.47l-6.39.64c-3.43.35-5.29 1.89-5.57 4.62-.45 4.51 3.59 8.45 3.67 13.16a64.78 64.78 0 0 1-1.76 16.19c-.87 3.63-3.57 4.93-6.72 6.29a1.41 1.41 0 0 0-.53 2.19c1.61 1.94 4.87 7.51 1.15 9.29-4.82 2.32-9.85 4.77-9.88 10.89 0 1.07.46 2.98 1.41 5.73 1.3 3.76 2.62 7.98 1.65 11.93-1.62 6.58-9.57 10.3-15.78 10.17-1.14-.02-3.01-.46-5.62-1.33a20.59 20.59 0 0 0-10.09-.79 2.44 2.44 0 0 1-2.66-1.45l-1.1-2.63a.73.73 0 0 0-1.27-.14l-1.44 1.99a.87.87 0 0 1-.88.33l-6.34-1.41c-4.5-1.03-9.81 8.64-8.06 12.59a.92.92 0 0 0 .75.55c3.91.41 7.27 1.66 8.94 5.51a15.55 15.55 0 0 1 .39 11.44 102.7 102.7 0 0 0-3.32 13.62c-.35 1.91-2.03 2.55-3.74 1.64-4.37-2.33-6.5-6.06-6.38-11.21a.89.89 0 0 0-.46-.83c-1.38-.82-2.31-1.24-3.32-2.6-1.69-2.25-3.99-4.98-7.08-2.68a2.52 2.52 0 0 0-.65 3.3c1.23 2.05 5.2 7.57 2.36 9.78-3.69 2.87-4.66 6.52-2.92 10.96 1.71 4.37 2.59 8.43 2.62 12.17 0 .34.1.64.32.91l2.83 3.52c.2.25.25.53.15.83-1.12 3.41-3.29 3.21-5.92 4.11a1.2 1.2 0 0 0-.71.66c-1.28 2.94-3.27 6.21-6.82 6.65a1.17 1.17 0 0 1-.93-.29c-3.22-2.97-4.47-8.99-10.24-8.02-7.67 1.3-4.21 10.25-4.34 15.2-.1 3.45-1.74 6.19-4.93 8.23a1.2 1.2 0 0 0-.52.73c-.71 3 2.96 5.09 5.57 7.18 1.58 1.26 1.55 3.09 1.18 5.2-.47 2.68-.08 5.6 1.17 8.75.65 1.64.05 2.79-1.8 3.44-3.61 1.28-8.13 1.75-10.94 4.49a1.14 1.14 0 0 0-.34.94c.51 4.67 3.69 12.77 8.61 14.74.32.13.67.12.98-.03 5.27-2.49 9.3-4.23 14.97-1.38 1.34.68 2.09 2.41 1.58 3.69-1.93 4.85-1.11 7.24-.47 11.5.2 1.35.08 2.84-.35 4.47a41.11 41.11 0 0 0-1.32 14.8c.3 3.01 1.6 5.72 3.91 8.11a1.38 1.38 0 0 1 .37.83c.12 1.6-.38 2.9-1.51 3.92a328.88 328.88 0 0 1-11.16 9.71c-5.07 4.21-1.52 11.51 4.24 11.32 3.21-.1 5.99-3.22 8.45-5.29 2.43-2.04 7.78-1.34 11.15-1.55 4.83-.28 6.36-4.12 10.37-5.74 3.57-1.43 6.79-.64 9.67 2.39a.92.92 0 0 1 .24.83 3.2 3.2 0 0 1-1.86 2.44c-4.65 2.05-9.27 6.53-7.7 11.98.9 3.15 1.98 7.57 3.22 13.26 3.12 14.39-15.47 9.6-13.35 16.57a9.16 9.16 0 0 1-14.99-6.43 1.5 1.5 0 0 1 .24-.94c2.65-4.08 2.37-7.48-.86-10.19-2.24-1.88-6.27-2.64-9.23-4.36a1.04 1.04 0 0 1-.51-.66l-2.39-9.17a.8.8 0 0 0-.55-.57c-3.73-1.1-10.28-1.42-10.1-6.93l1.03-4.47c.79-3.37.25-6.58-1.61-9.61-1.32-2.14-1.65-4.1-4.67-4.82-5.55-1.32-11.37-2.38-10.33-9.81a8.97 8.97 0 0 1 3.27-5.86c.25-.2.43-.48.52-.79 1.63-5.25.29-8.77-4.04-10.55-1.65-.68-2.75-1.36-3.3-2.05-1.73-2.15-2.21-4.76-1.44-7.81a.95.95 0 0 1 .62-.67c3.2-1.04 6.13-2.61 7.43-5.86 2.16-5.37-.41-9.63-5.32-11.96-5.29-2.52-7.27-6.91-5.94-13.18.39-1.83.42-4.45 2.2-5.95 3.26-2.75 6.71-4.77 8.46-9.11a1.58 1.58 0 0 0 .08-.96c-1.64-7.67 3.69-5.24 7.02-8.34 2.34-2.17 2.54-4.71.6-7.62-2.97-4.45-6.7-4.7-11.2-.75a54.08 54.08 0 0 0-2.85-7.17c-2.17-4.44-3.21-3.71-7.68-4.27-3.45-.43-5.03-3.51-6.43-6.57-4.38-9.62 1.94-14.05 10.18-16.22a1.1 1.1 0 0 0 .7-1.55c-2.9-5.83-4.35-13.18 2.37-17.14 1.35-.8 4.28-1.29 8.77-1.48 2.7.75 4.87.4 6.48-1.05a53.7 53.7 0 0 0 8.9-10.71c1.88-2.9-1.76-8.56-4.91-8.94a9.55 9.55 0 0 1-4.42-2.67 2.28 2.28 0 0 1-.53-2.27 12.42 12.42 0 0 1 8.8-9.08 1.06 1.06 0 0 0 .52-1.66c-1.55-1.98-3.57-4.19-4.22-6.45-1.62-5.64 1.95-7.9 5.81-11.08a.56.56 0 0 0 .07-.79l-.01-.01c-3.75-4.14-7.83-10.56-3.69-16.03 3.67-4.83 9.1-3.95 14.36-2.53a1.45 1.45 0 0 0 1.68-.79c3.59-7.72 11.04-3.62 15.87-.17a1.72 1.72 0 0 0 2.26-.23c2.02-2.21 4.03-10.24.29-12.24-3.41-1.82-7.99-2.63-8.54-7.35-1.83-15.59 31.04-4.67 28.28-27.93-.48-4.06-6.2-8.29-3.67-13.82 2.95-6.43 7.69-5.99 13.74-7.01 4.14-.69 5.71-4.12 9.48-4.79 7.93-1.4 11.67 3.18 14.91 9.46 2.16 4.19 8.21 1.36 9.3-2.11a1.28 1.28 0 0 0-.06-.95c-2.04-4.47-7.19-11.55-4.69-16.22a8.14 8.14 0 0 1 12.85-2.13 14.29 14.29 0 0 1 3.5 5.49.95.95 0 0 0 .75.63c1.32.27 2.99-.28 3.91-.33 6.97-.35 11.72 2.32 14.27 8.03 2.01 4.51 1.36 9.21 1.17 14.5-.07 2.16 1.39 3.68 3.28 4.91 4.57 2.98 7.12 5.36 8.52 10.58zM98.41 273c4.48 4.41-.74 10.63 2.54 14.56a2.58 2.58 0 0 0 3.92.03 66.99 66.99 0 0 1 6.88-6.88c3.68-3.19 5.93-5.4 6.76-6.66 4.86-7.38 2.98-16.82-5.17-21.19-3.88-2.07-13.91-1.31-11.49 5.64.57 1.65.83 2.69.77 3.12-.58 4.04-6.87 6.32-10.14 6.52a.78.78 0 0 0-.15 1.53c2.43.63 4.46 1.74 6.08 3.33z" fill="#fffdef"/>
  <path d="M244.94 195.45c6.09 5.41 7.79 11.18 5.11 17.29-3.27 7.43-11.84 11.36-19.51 8.18-5.43-2.25-8.25-6.4-8.48-12.44-.21-2.49.11-4.53.97-6.14.2-.35.35-.34.47.05 1.17 3.73 3.6 5.23 7.26 4.48 5.94-1.21 8.8-11.31.93-11.72-.33-.01-.35-.1-.06-.27 4.87-2.74 9.31-2.55 13.31.57z" fill="#12080b"/>
  <path d="m298.88 199.03-6.48 12.9c-8.54 16.66-15.96 34.05-23.83 51.05-4.66 10.05-8.6 20.04-12.66 30.19a9.15 9.15 0 0 1-1.09 1.99l-1.33 1.85-2.43-9.87a1.63 1.63 0 0 0-.44-.8l-4.02-4.07 37.11-77.03c-.1.29-.1.52.02.71a.51.51 0 0 0 .91-.12c1.44-4.63 7.34-7.39 11.34-10.05.23-.16.5-.24.78-.24a1.4 1.4 0 0 1 1.39 1.57c-.13 1.14.12 1.78.73 1.92z" fill="#ff572e"/>
  <path d="M266.01 328.72a161.6 161.6 0 0 1-12.48 14.34c-4.1 4.2-9.07 5.95-14.51 7.51a717.15 717.15 0 0 0-34.47 10.87.84.84 0 0 1-.55.03c-.25-.09-.39-.23-.43-.44l-.96-3.57a27.53 27.53 0 0 0 14.86-8.36c3.29-3.49 3.83-6.36 4.04-11.01.04-.89.5-1.26 1.38-1.13 5.95.94 11.65-.81 17.12-5.26 1.47 2.16 3.8 5.45 6.61 3.9a28.13 28.13 0 0 0 7.61-6.13 201.5 201.5 0 0 0 19.5-26.26l34.4-55.12c1.36-2.18 2.01-3.76.45-6.15a12.39 12.39 0 0 0-3.07-3.41l-1.08-1.31c.09-2.72 2.24-4.09 4.85-4.15 5.83-.13 9.34 2.91 10.55 9.12a8.56 8.56 0 0 1-1.24 6.44l-35.03 55.91a226.4 226.4 0 0 1-17.55 24.18z" fill="#12080b"/>
  <path d="m304.43 237.22 1.08 1.31a54.83 54.83 0 0 1-7.4 15.32c-5.34 7.8-9.4 16.02-14.76 23.75-.88 1.27-1.71 1.86-2.8 2.92a1.8 1.8 0 0 1-.77.44c-3.55 1.02-3.45 6.79-7.53 6.16a62.19 62.19 0 0 1 8.69-13.87 45.49 45.49 0 0 0 8.43-13.09c.57-1.3 1.96-3.84 4.17-7.59.03-.04.43-1 1.22-2.87.58-1.38 1.89-2.28 2.53-3.45 1.52-2.77 3.66-5 6.42-6.7a.8.8 0 0 0 .4-.76 3.15 3.15 0 0 1 .32-1.57z" fill="#ffac3e"/>
  <path d="M305.51 238.53c1.06.75 2.08 1.89 3.07 3.41 1.56 2.39.91 3.97-.45 6.15l-34.4 55.12a201.5 201.5 0 0 1-19.5 26.26 28.13 28.13 0 0 1-7.61 6.13c-2.81 1.55-5.14-1.74-6.61-3.9l4.33-5.87a389.84 389.84 0 0 0 27.91-38.71c4.08.63 3.98-5.14 7.53-6.16.3-.08.55-.23.77-.44 1.09-1.06 1.92-1.65 2.8-2.92 5.36-7.73 9.42-15.95 14.76-23.75a54.83 54.83 0 0 0 7.4-15.32z" fill="#ff572e"/>
  <path d="M243.32 250.93a424.48 424.48 0 0 1-9.94 27.23c-1.54 3.8-4.24 5.91-6.4 9.16-2.31 3.48-1.06 6.73 2.36 8.59 2.15 6.17 1.77 12.32-1.13 18.47-3.18 6.73-12.73 1.33-18.39 4.42-2.21 1.21-9.51 6.99-4.64 9.53 2.85 1.48 4.71 3.21 5.42 6.46 1.69 7.6-5.21 10.79-10.84 13.44-2.46 1.16-5.05 4.77-2.72 7.12 1.23 1.24 3.72 1.19 5.57 2.11l.96 3.57a3.19 3.19 0 0 0-.98 3.31c.08.33.3.62.61.78 3.79 1.91 8.91 2.85 13.17 3.72.85.17 1.25.72 1.22 1.64-2.4 9.64-9.89 11.87-18.91 10.89a.9.9 0 0 0-.95.6l-2.66 7.57c-.49.45-.72.89-.71 1.31.01.35.18.6.49.74a27.77 27.77 0 0 1 10.39 8.21c.2.25.46.42.77.49l.59.13c-.22-.14-.39.02-.51.49a1.51 1.51 0 0 0 0 .67c.63 3.02 1.8 6.22.48 9.12-3.07 6.69-10.19 6.62-16.55 3.92a23.85 23.85 0 0 1-2.12-8.47.7.7 0 0 0-1-.57.68.68 0 0 0-.22.17c-2.9 3.4-5.95 2.08-9.34.43-7.24-3.54-14.88 2.05-20.1 6.13-2.73-2.53-6.48-3.49-11.23-2.88-7.69.98-7.42 4.72-12.15 9.25a1.72 1.72 0 0 1-2.65-.34c-4.49-7.27-8.55-12.53-17.81-10.12-4.41 1.14-7.6 4.26-10.17 7.92a1.72 1.72 0 0 1-2.83-.03c-5.45-8.07-7.63-12.7-18.26-6.34-3.03 1.82-6.49 1.54-6.64-2.77-.11-3.08 4.96-4.68 7.47-4.9 4.83-.43 6.77 3.67 12.33 1.54 6.2-2.36 9.18-6.95 8.93-13.78a1.3 1.3 0 0 1 .11-.58 1.33 1.33 0 0 1 2.22-.32c2.46 2.89 4.71 5.58 8.68 6.12 6.15.83 12.32 1 18.5.48 5.98-.5 8.63-3.16 13.4-7.43 4.8-4.29 12.75-.45 17.56 2.34a.48.48 0 0 0 .61-.71 67.29 67.29 0 0 0-7.05-7.56c-4.4-4.07-9.35-2.85-14.26-5.15-2.22-1.04-4.01-2.26-6.44-3.09a23.5 23.5 0 0 1-5.43-2.68 1.75 1.75 0 0 1-.63-.76c-1.42-3.45-3.08-5.69-5.62-9.69-4.76-7.48-13.3-10.66-21.74-12.33a1.38 1.38 0 0 1-.72-2.32l3.35-3.39a.97.97 0 0 1 1.06-.22c5.4 2.18 10.34 4.49 15.45.05a1.8 1.8 0 0 1 1.28-.44c1.25.07 1.91.92 2 2.55.23 4.25-.15 10.76 1.73 14.57.15.3.4.45.74.42 3.14-.3 5.73-1.37 6.98 2.6 1.19 3.77 3.04 7.56 7.37 8.21 7.22 1.09 14.29.7 21.2-1.16 5.42-1.45 10.73-4.66 15.79-7.56 1.76-1 3.09-1.9 3.98-2.7a.98.98 0 0 0 .32-.9c-.78-4.65-4.45-5.13-5.28-9.78-1.6-8.93-7.06-13.34-16.41-13.21-2.98.04-5.02 1.35-7.43 2.91a.43.43 0 0 1-.55-.64 13.05 13.05 0 0 0 3.4-9.04c0-.95.43-1.26 1.32-.93 2.82 1.05 4.58.17 5.27-2.63.1-.37.32-.5.68-.37.91.32 1.8.67 2.65 1.06 5.56 2.49 12.62-2.3 15.12-6.89 1.29-2.37 1.68-3.64 4.74-3.8a86.5 86.5 0 0 0 13.57-1.66c3.46-.75 3.14-5.11 1.72-7.89a.63.63 0 0 0-.63-.36 7.4 7.4 0 0 0-4.38 1.73 2.87 2.87 0 0 1-3.42.15 103.11 103.11 0 0 0-8.51-5.18c-2.83-1.55-3.01-5.86-5.59-6.91a43.42 43.42 0 0 1-8.2-4.37 1.5 1.5 0 0 0-2.31.98l-1.35 7.82a1.02 1.02 0 0 1-1.16.82l-4.49-.71a1.6 1.6 0 0 1-1.33-1.57 1.58 1.58 0 0 1 .7-1.32l4.37-2.92a.85.85 0 0 0 .31-.37c.8-2.06 2.02-3.82 3.66-5.27l.01-.01a1.6 1.6 0 0 1 2.25.15l.01.01c8.06 9.4 21.84 9.48 32 3.64 6.24-3.6 9.26-9.27 9.71-16.3a.89.89 0 0 1 .53-.78 14.2 14.2 0 0 1 3.53-1.23c3.79-.69 11.2-4.9 9.12-9.81-.72-1.69-2.22-2.4-4.51-2.12h-.06a.55.55 0 0 1-.51-.76l1.99-4.6a1.05 1.05 0 0 1 .87-.63 60.33 60.33 0 0 0 17.24-4.49z" fill="#ffac3e"/>
  <path d="M98.41 273a13.16 13.16 0 0 0-6.08-3.33.78.78 0 0 1 .15-1.53c3.27-.2 9.56-2.48 10.14-6.52.06-.43-.2-1.47-.77-3.12-2.42-6.95 7.61-7.71 11.49-5.64 8.15 4.37 10.03 13.81 5.17 21.19-.83 1.25-3.08 3.47-6.76 6.66a66.99 66.99 0 0 0-6.88 6.88 2.58 2.58 0 0 1-3.92-.03c-3.28-3.93 1.94-10.15-2.54-14.56z" fill="#ffdb8b"/>
  <path d="m299.33 594.14-6.71-12.09c2.18-2.79 5.55-2.94 10.1-.46l9.84 5.28c7.78 4.11 20.97 4.67 23.97-6.06a1.91 1.91 0 0 1 1.75-1.4c6.18-.28 5.4-2.62 7.15-7.22a.8.8 0 0 1 .7-.54c5.91-.62 12.45-6.3 5.84-11.48-.93-5.77-.65-10.85-7.32-12.77-.34-.1-.46-.31-.37-.65a5.91 5.91 0 0 1 3.41-3.91c3.75.08 7.31 1.94 10.44 1.74a10.6 10.6 0 0 0 8.18-4.61 1.28 1.28 0 0 0 .25-.84l-.42-6.82a1.55 1.55 0 0 1 .97-1.53c2.16-.85 5.37-1.19 6.9-2.69 3.46-3.39-.46-10.07-2.47-13.47-2.1-3.54 5.2-8.21 7.49-9.55 1-.97 1.71-2.22 2.14-3.77a.91.91 0 0 1 .72-.66c6.45-1.23 17.64-3.68 13.94-13.49-1.15-3.05-3.42-4.72-6.83-5.01-.44-.2-.75-.39-.92-.54-.13-.11-.13-.4 0-.84 1.97-6.58.62-12.01-.53-18.63a1369.92 1369.92 0 0 1 34.62-39.23c1.09-1.19 1.76-2.91 2.02-5.18l9.92-95.96v-.03a.42.42 0 0 0-.68-.33c-10.13 8.18-18.75 17.33-27.81 26.68-2.62 2.71-5.63 4.15-6.24 8.32a368.06 368.06 0 0 1-3.18 18.38l-6.31 38.45a63.44 63.44 0 0 1-5.69 18.26l-.81-.18c-.37-.09-.54-.32-.49-.7l4.39-33.73a506.3 506.3 0 0 1 3.32-19.73 575.49 575.49 0 0 0 4.74-30.19c.4-3.13.14-5.63-.81-7.49-4.94-9.63-8.29-17.23-15.8-27.3a88.67 88.67 0 0 0-11.9-15.74c-.09-.1-.14-.08-.15.05l-14.33 113.97a5.43 5.43 0 0 0 .14 2.06c1.82 6.89 3.71 13.86 4.5 21.28a.65.65 0 0 1-.65.72c-6.5-.12-11.66 2.33-15.46 7.35-3.77 4.97-6.49 9.28-8.14 12.91-.17.37-.45.59-.85.67l-4.11.85a1 1 0 0 0-.59.35c-3.8 4.63-6.15 16.46-14.99 10.7-4.02-2.63-4.33-7.67-10.63-6.11a1.24 1.24 0 0 1-1.46-.78 21.39 21.39 0 0 0-3.49-6.27c-1.92-2.44-6.24-1.83-9.89-1.64a.77.77 0 0 1-.75-.51c-1.51-4.24-2.88-7.37-7.48-7.73-9.46-.73-12.8 5.97-13.47 14.17a40.4 40.4 0 0 1-1.85 9.59c-2.83 3.53-5.98 5.04-9.46 4.53-1.76-6.65-5.9-9.7-12.42-9.15-.37.03-.59-.13-.66-.5-.89-4.71-1.77-10.83-8.58-8.27a8.48 8.48 0 0 0-4.25 3.36 1.34 1.34 0 0 1-2.24 0l-5.92-9.05a.83.83 0 0 1 .38-1.22 11.3 11.3 0 0 0 6.29-6.15 1.43 1.43 0 0 0-.66-1.83 13.66 13.66 0 0 0-11.53-.68c-3 1.14-5.64 4.1-8.09 6.39l-.03.03a1.12 1.12 0 0 1-1.58-.11l-.03-.04c-3.99-5.04-11.17-3.1-15.93-.23l-12.88 7.73c-2.63 1.58-5.02 1.27-7.16-.94-.2-.77-.09-1.02.32-.75a18.66 18.66 0 0 0 7.15-2 187.22 187.22 0 0 0 18.64-10.59c4.72-3.08 9.58-5.88 14.36-8.85 2.47-1.54 4.66-2.18 6.59-1.92 4.41.59 14.89 2.67 18.25.68a62.8 62.8 0 0 0 16.05-13.55c.62-.73.66-1.5.13-2.29-6.12-9.18-13.19 5.37-20.93 5.13-6-.18-11.98-.53-17.96-1.05a7.32 7.32 0 0 0-3.95 1.08l-21.11 13.67c-1.1.7-2.71 1.06-4.82 1.05l-1.6-.36a5.02 5.02 0 0 1-2.23-.88c-.33-.25-.43-.57-.29-.96l2.29-6.38a.91.91 0 0 1 .65-.58l5.05-1.18c2.83-.67 4.5-3.2 4.99-7.58 6.36 2.7 13.48 2.77 16.55-3.92 1.32-2.9.15-6.1-.48-9.12a1.43 1.43 0 0 1 0-.67c.12-.47.29-.63.51-.49a309.23 309.23 0 0 0 16.66-12.71c1.45-1.17 4.46-2.43 6.82-2.3 9.17.51 17.71-3.88 26.15-7.02 5-1.86 8.99-5 11.98-9.44l34.62-51.43c1.84-2.9.89-5.36-2.85-7.39l.85-3.8a.74.74 0 0 1 .58-.59c6.6-1.66 13.15 2.76 12.91 9.64-.06 1.7-.87 3.73-2.42 6.11-5.6 8.61-12.13 17.01-17.56 25.22a816.01 816.01 0 0 1-19.44 27.93c-3.53 4.88-6.15 8.41-11.72 11.05-4.89 2.3-9.15 3.94-14.87 6.38a39.84 39.84 0 0 1-15.81 3.22c-5.78.01-9.88 6.19-10.98 11.22-.08.36.06.57.43.62 9.54 1.37 13.66-4.09 21.1-6.64 4.42-1.51 8.35-1.25 11.79.79 6.08 3.61 8.47 11.93 4.33 17.91-3.51 5.08-14.48 12.66-21.28 16.35a1.28 1.28 0 0 0-.65.82c-.5 1.85-.54 3.74-.12 5.69.08.35.3.49.65.41 4.34-.91 7.5.25 9.46 3.5 2.37 3.92.38 6.99 6.33 9.17.37.13.6.01.69-.36.82-3.32 1.52-7.16 2.84-9.98 2.34-4.96 5.88-8.33 10.62-10.1 12.75-4.77 22.7-1.43 29.88 10.02a1.24 1.24 0 0 0 .73.56c6.65 2.01 11.72 3.35 16.73 9.27a.44.44 0 0 0 .72-.09 11.1 11.1 0 0 1 5.71-5.52c1.01-.43 1.33-.98 1.79-1.85 3.52-6.71 11.62-17.86 19.72-20.58.3-.1.47-.32.48-.64.32-6.09-2.4-12.39-1.93-16.63 4.93-44.57 10.19-89.16 16.82-133.51a.8.8 0 0 1 1.29-.49 172.16 172.16 0 0 1 44.62 57.24c.14.3.32.32.53.07a151.88 151.88 0 0 1 38.7-31.53c2.81-1.61 4.8 1.27 4.58 3.99l-11.54 121.73a1.5 1.5 0 0 1-.4.9c-11.75 13.06-24.48 26.01-35.15 39.93a.79.79 0 0 0-.1.85 191.66 191.66 0 0 1 3.91 9.44c2.99 7.82 5.29 14.01 1.83 20.92-1.97 3.92-5.11 7.01-9.43 9.27-3.13 1.65-13.16 3.37-13.43 7.49a1.32 1.32 0 0 0 .25.86c2.81 3.88 3.75 6.85 3.98 12.04.12 2.59.42 5.15.9 7.68.33 1.78.35 3.04.06 3.78-1.43 3.59-7.96 2.08-10.68 1.05-.33-.13-.56-.02-.69.31-2.33 6.14-9.41 7.65-14.67 10.49a2.18 2.18 0 0 0-.94 2.82c2.81 6.13 10.59 15.9 4.38 22.66-3.49 3.8-8.81 2.83-14.2 3.08a.59.59 0 0 0-.62.53c-2.88 13.7-10.75 21.2-23.61 22.49-9.31.93-17.09-1.6-24.18-7.53a6.8 6.8 0 0 0-4.42-1.65z" fill="#12080b"/>
  <path d="m246.07 282.12.53.15 4.02 4.07a1.62 1.62 0 0 1 .44.8l2.43 9.87c-.89 1.37-.83 2.87.17 4.52.16.28.2.62.08.92-1.83 5.01-13.57 10.23-18.76 12.44a.42.42 0 0 0-.12.69c3.62 3.45 7.21 5.34 9.48 10.25l-4.33 5.87c-5.47 4.45-11.17 6.2-17.12 5.26-.88-.13-1.34.24-1.38 1.13-.21 4.65-.75 7.52-4.04 11.01a27.5 27.5 0 0 1-14.86 8.36c-1.85-.92-4.34-.87-5.57-2.11-2.33-2.35.26-5.96 2.72-7.12 5.63-2.65 12.53-5.84 10.84-13.44-.71-3.25-2.57-4.98-5.42-6.46-4.87-2.54 2.43-8.32 4.64-9.53 5.66-3.09 15.21 2.31 18.39-4.42 2.9-6.15 3.28-12.3 1.13-18.47l8.57-1.59c.29-.05.56-.18.78-.37 3.27-2.78 3.7-7.74 5.46-11.06a1 1 0 0 1 .69-.51l1.23-.26z" fill="#ff932f"/>
  <path d="m378.74 312.17-7.01 43.55-7.01 48.75c-1.12 7.12.46 12.99 2.03 20.98a60.15 60.15 0 0 0 3.87 12.55 7.4 7.4 0 0 1-1.65 3.38c-4.17 5.13-13.83-.87-14.68 7.86a220.8 220.8 0 0 0-.73 10c-.26 5.18-12.3 6.18-15.76 5.83-.35-.03-.54.13-.57.48-.38 5.3.14 9.26-5.41 11.74a18.79 18.79 0 0 1-7.58 1.83 1.5 1.5 0 0 1-.96-.35c-1.6-1.36-2.63-2.86-4.46-3.91a46.8 46.8 0 0 1-11.74-9.48 1.8 1.8 0 0 0-.82-.53c-2.55-.8-4.89-2-7.01-3.58a13.38 13.38 0 0 1-2.37-2.86c-2.54-3.71-7.57-3.37-11.62-3.75a1.12 1.12 0 0 0-.88.3c-3.21 2.97-6.78 6.09-10.38 1.47a.96.96 0 0 0-.83-.38 3.25 3.25 0 0 0-3 1.89 42.18 42.18 0 0 1-6.98 10.12 40.29 40.29 0 0 0 1.85-9.59c.67-8.2 4.01-14.9 13.47-14.17 4.6.36 5.97 3.49 7.48 7.73a.77.77 0 0 0 .75.51c3.65-.19 7.97-.8 9.89 1.64a21.39 21.39 0 0 1 3.49 6.27c.21.6.84.93 1.46.78 6.3-1.56 6.61 3.48 10.63 6.11 8.84 5.76 11.19-6.07 14.99-10.7a1 1 0 0 1 .59-.35l4.11-.85c.4-.08.68-.3.85-.67 1.65-3.63 4.37-7.94 8.14-12.91 3.8-5.02 8.95-7.47 15.46-7.35a.65.65 0 0 0 .65-.72c-.79-7.42-2.68-14.39-4.5-21.28a5.43 5.43 0 0 1-.14-2.06l14.33-113.97c.01-.13.06-.14.15-.05a88.67 88.67 0 0 1 11.9 15.74z" fill="#fffdef"/>
  <path d="M245.57 371.93a30.51 30.51 0 0 1-17.79 3.01c-3.24-.42-5.42.11-7.69 2.14a73.67 73.67 0 0 1-17.33 11.66c-1.78.85-4.34 1.11-7.69.8l2.66-7.57a.9.9 0 0 1 .95-.6c9.02.98 16.51-1.25 18.91-10.89l.41-1.74a.84.84 0 0 1 .66-.67 292.08 292.08 0 0 0 30.8-9.73c3.22-1.22 5.48-2.77 6.78-4.64l14.38-21.06a502.92 502.92 0 0 1 16.78-23.74c2.45-3.27 6.41-3.4 9.99-2.82a1.1 1.1 0 0 1 .73 1.72c-7.61 11-15.44 23.48-22.19 33.26l-14.71 21.12c-4.33 6.19-9.47 6.41-15.65 9.75z" fill="#12080b"/>
  <path d="M299.98 310.13c3.74 2.03 4.69 4.49 2.85 7.39-11.04 17.45-23.06 34.31-34.62 51.43a24.4 24.4 0 0 1-11.98 9.44c-8.44 3.14-16.98 7.53-26.15 7.02-2.36-.13-5.37 1.13-6.82 2.3a312 312 0 0 1-16.66 12.71l-.59-.13a1.35 1.35 0 0 1-.77-.49 27.77 27.77 0 0 0-10.39-8.21.78.78 0 0 1-.49-.74c-.01-.42.22-.86.71-1.31 3.35.31 5.91.05 7.69-.8a73.67 73.67 0 0 0 17.33-11.66c2.27-2.03 4.45-2.56 7.69-2.14 6.17.8 12.1-.2 17.79-3.01-.84 6.24 12.16-.4 13.89-1.63 2.07-1.46 4.49-4.1 7.27-7.92a885.5 885.5 0 0 0 31.55-46.4c.66-1.03 1.23-2.98 1.7-5.85zm78.76 2.04c7.51 10.07 10.86 17.67 15.8 27.3.95 1.86 1.22 4.36.81 7.49a575.49 575.49 0 0 1-4.74 30.19 506.3 506.3 0 0 0-3.32 19.73l-4.39 33.73c-.05.38.12.61.49.7l.81.18a41.7 41.7 0 0 0-7.8 10.75l-5.78-4.24a60.15 60.15 0 0 1-3.87-12.55c-1.57-7.99-3.15-13.86-2.03-20.98l7.01-48.75c.83-6 3.17-20.52 7.01-43.55zm8.81 149.96-3.19-3.65c-.21-.25-.47-.3-.77-.18a6.6 6.6 0 0 1-1.11.36c-.3.07-.5-.25-.58-.95 1.2-2.25.9-3.8-.91-4.66a.87.87 0 0 1-.53-.73 8.35 8.35 0 0 1 .32-3.38l3.12-3.33a.87.87 0 0 0 .2-.87c-.72-2.2-.54-3.82.53-4.87 5.84-5.72 10.09-11.67 10.75-18.89l2.31-25.37c.65-7.17.68-14.47 1.03-21.76.03-.6-.23-.78-.78-.56-.7.29-1.05.85-1.08 1.7a.3.3 0 0 1-.02.1.32.32 0 0 1-.5.13c-.12-.1-.17-.25-.14-.44a368.06 368.06 0 0 0 3.18-18.38c.61-4.17 3.62-5.61 6.24-8.32 9.06-9.35 17.68-18.5 27.81-26.68a.42.42 0 0 1 .68.33v.03l-9.92 95.96c-.26 2.27-.93 4-2.02 5.18a1369.92 1369.92 0 0 0-34.62 39.23z" fill="#ff572e"/>
  <path d="M33.92 324.26c3.15.38 6.79 6.04 4.91 8.94a53.7 53.7 0 0 1-8.9 10.71c-1.61 1.45-3.77 1.8-6.48 1.05-1.59-8.73 1.33-14.83 8.76-18.29.76-.36 1.33-1.16 1.71-2.41z" fill="#12080b"/>
  <path d="m266.01 328.72 4.61 3.92-14.38 21.06c-1.3 1.87-3.56 3.42-6.78 4.64a292.08 292.08 0 0 1-30.8 9.73.85.85 0 0 0-.66.67l-.41 1.74c.03-.92-.37-1.47-1.22-1.64-4.26-.87-9.38-1.81-13.17-3.72a1.17 1.17 0 0 1-.61-.78c-.3-1.35.02-2.45.98-3.31.04.2.18.35.43.44.15.05.34.04.55-.03a717.15 717.15 0 0 1 34.47-10.87c5.44-1.56 10.41-3.31 14.51-7.51a161.6 161.6 0 0 0 12.48-14.34z" fill="#ff572e"/>
  <path d="M380.78 448.94c-.28-3.47-1.74-5.7-4.38-6.7a41.7 41.7 0 0 1 7.8-10.75 63.44 63.44 0 0 0 5.69-18.26l6.31-38.45c-.03.2.02.34.14.44a.32.32 0 0 0 .5-.12.3.3 0 0 0 .02-.11c.03-.85.39-1.41 1.08-1.7.55-.22.8-.03.78.56-.35 7.29-.38 14.59-1.03 21.76l-2.31 25.37c-.66 7.22-4.91 13.17-10.75 18.89-1.07 1.05-1.25 2.67-.53 4.87a.87.87 0 0 1-.2.87l-3.12 3.33z" fill="#ffac3e"/>
  <path d="M73.4 558.78a23.6 23.6 0 0 0 5.14 1.49c2.23.38 3.72.91 4.47 1.6 1.86 1.7 2.7 4.38 2.54 8.05.2 3.6-1.08 6.87-3.86 9.8a1.64 1.64 0 0 0-.45 1.02c-.25 3.62 1.26 6.87 4.53 9.75 4.62 4.08 9.05.89 12.62-2.76l3.65-.12a140.4 140.4 0 0 1 6.96 9.93c1.05 1.63 2.2 2.42 3.47 2.38 6.57-.23 7.95-5.82 9.22-11.16.08-.31.28-.48.59-.49 2.87-.15 5.7.05 8.51.59 6.2 1.18 3.61 14.18 11.96 16.41 3.32.88 5.74-.39 7.27-3.81a1 1 0 0 1 .74-.58c5.18-1 5.97 2.61 6.5 6.63 1.53 11.75 15.28 7.27 16.13-2.45.03-.33.2-.53.52-.62 6.25-1.66 6 6.82 9.58 10.02 3.52 3.15 7.6 3.71 12.25 1.67a10.99 10.99 0 0 0 4.82-4.52 1.74 1.74 0 0 1 2.73-.45c2.23 2.08 4.46 5.05 7.56 5.4 7.96.92 10.29-5.04 13.5-10.73 1.94-3.44 4.6-3.49 8-.15 2.67 5.01 4.66 8.09 5.96 9.22a9.3 9.3 0 0 0 15.45-6.13c.33-3.65-4.65-8.08-1.65-10.94 3.52-3.37 3.8-6.9.83-10.59a1.01 1.01 0 0 1 .65-1.63l3.55-.46c.48-.06.77.14.87.61.44 1.98.36 4.51 1.38 6.15 2.32 3.73 5.87 5.28 10.66 4.64.37-.05.64.1.8.45l1.15 2.57c.1.24.28.42.51.55 5.83 3.15 10.13 1.99 12.88-3.5a.73.73 0 0 1 .78-.43c2.03.2 3.5 1 4.44 2.4 1.66 8.27-2.39 13.97-10.27 15.91-5.82 1.43-10.5-.05-16.69-2.02-.33-.1-.57 0-.7.33-3.37 8.49-11.78 16.73-21.28 16.24-5.85-.31-9.61-3.99-12.92-8.67-.24-.33-.51-.36-.81-.07a28.23 28.23 0 0 1-17.74 8.31.8.8 0 0 0-.73.57c-1.32 3.66-2.69 10.6-7.09 12.1-6.94 2.37-8.7-8.76-9.09-13.12-.03-.36-.23-.54-.6-.55-8.03-.13-12.31-.82-17.5-7.23a.55.55 0 0 0-.8-.06c-7.86 7.2-19.96 6-24.84-3.94a.67.67 0 0 0-.72-.36c-10.11 1.76-15.4-3.72-20.96-11.54-.23-.33-.5-.35-.78-.06a25.68 25.68 0 0 1-8.1 5.72c-8.79 3.93-15.64.73-21.57-6a.8.8 0 0 0-.85-.24c-13.91 4.29-24.41-9.68-25.24-22.15-.16-2.34.1-5.5.8-9.5.06-.35-.09-.52-.44-.49-14.49.93-21.31-8.93-22.34-22.23a2.68 2.68 0 0 0-1.71-2.29c-5.67-2.2-9.14-6.29-10.39-12.29a.88.88 0 0 0-.77-.7c-12.54-1.4-13.23-11.76-11.27-21.8a.76.76 0 0 0-.48-.86c-12.94-4.59-17.12-15.62-13.17-28.37a1.1 1.1 0 0 0-.13-.94c-5.44-8.12-6.84-16.85.3-24.42a.93.93 0 0 0-.12-1.38c-9.83-7.34-12.98-17.17-9.44-29.48 1.43-4.97 4.22-8.68 8.36-11.12a2.73 2.73 0 0 0 1.35-2.39c-.07-5.82 2.1-10.53 6.51-14.14 4.5-3.95 8.23-3.7 11.2.75 1.94 2.9 1.74 5.45-.6 7.62-3.33 3.1-8.66.67-7.02 8.34a1.58 1.58 0 0 1-.08.96c-1.75 4.34-5.2 6.36-8.46 9.11-1.78 1.5-1.81 4.12-2.2 5.95-1.33 6.27.65 10.66 5.94 13.18 4.91 2.33 7.48 6.59 5.32 11.96-1.3 3.25-4.23 4.82-7.43 5.86a.95.95 0 0 0-.62.67c-.77 3.05-.3 5.66 1.44 7.81.55.69 1.65 1.37 3.3 2.05 4.33 1.78 5.67 5.3 4.04 10.55a1.65 1.65 0 0 1-.52.79 8.97 8.97 0 0 0-3.27 5.86c-1.04 7.43 4.78 8.49 10.33 9.81 3.02.72 3.35 2.68 4.67 4.82a12.37 12.37 0 0 1 1.61 9.61l-1.03 4.47c-.18 5.51 6.37 5.83 10.1 6.93a.81.81 0 0 1 .55.57l2.39 9.17a1.06 1.06 0 0 0 .51.66c2.96 1.72 6.99 2.48 9.23 4.36 3.23 2.71 3.51 6.11.86 10.19a1.5 1.5 0 0 0-.24.94 9.16 9.16 0 0 0 14.99 6.43z" fill="#12080b"/>
  <path d="M190.02 414.62c-.5 4.38-2.16 6.9-4.99 7.58l-5.05 1.18a.91.91 0 0 0-.65.58l-2.29 6.38c-.14.39-.04.7.29.96.57.43 1.32.73 2.23.88-9.05 1.62-8.93-6.15-11.65-11.18-.88-5.23-3.8-7.77-8.78-7.63-1.01.03-1.29-.34-1.89-1.06 5.22-4.08 12.86-9.67 20.1-6.13 3.39 1.65 6.44 2.97 9.34-.43a.68.68 0 0 1 .21-.17.7.7 0 0 1 1.01.57 23.8 23.8 0 0 0 2.12 8.47z" fill="#ff7123"/>
  <path d="M168.44 451.93c-.96-.18-1.49-.6-1.59-1.28a.6.6 0 0 1 .44-.67c2.22-.56 2.19-4.01 2.89-5.92.12-.35.36-.5.73-.46 2.4.26 10.68 1.22 11.8-1.61 1.69-4.24 1.17-7.39-1.55-9.45 2.1 0 3.71-.34 4.82-1.05l21.11-13.67a7.32 7.32 0 0 1 3.95-1.08 317.38 317.38 0 0 0 17.96 1.05c7.74.24 14.81-14.31 20.93-5.13.53.8.49 1.56-.13 2.29a62.8 62.8 0 0 1-16.05 13.55c-3.36 1.99-13.84-.09-18.25-.68-1.93-.26-4.12.38-6.59 1.92l-14.36 8.85a187.22 187.22 0 0 1-18.64 10.59 18.66 18.66 0 0 1-7.15 2c-.4-.27-.51-.02-.32.75z" fill="#ff572e"/>
  <path d="M167.91 421c2.72 5.03 2.6 12.8 11.65 11.18l1.6.36c2.72 2.06 3.24 5.21 1.55 9.45-1.12 2.83-9.4 1.87-11.8 1.61-.37-.04-.61.11-.73.46-.7 1.91-.67 5.36-2.89 5.92a.6.6 0 0 0-.44.67c.1.67.63 1.1 1.59 1.28 2.14 2.2 4.53 2.52 7.16.94l12.88-7.73c4.76-2.87 11.94-4.81 15.93.23l.03.04a1.12 1.12 0 0 0 1.58.11l.03-.03c2.45-2.29 5.09-5.25 8.09-6.39a13.66 13.66 0 0 1 11.53.68 1.44 1.44 0 0 1 .66 1.83 11.3 11.3 0 0 1-6.29 6.15.83.83 0 0 0-.38 1.22l5.92 9.05a1.34 1.34 0 0 0 2.24 0 8.48 8.48 0 0 1 4.25-3.36c6.81-2.56 7.69 3.56 8.58 8.27.07.37.3.53.66.5 6.52-.55 10.66 2.5 12.42 9.15l-4.66 5.68a1.11 1.11 0 0 1-1.72-.02c-.79-.99-1.48-2.32-2.51-3.05-4.78-3.39-8.1 1.01-11.24 4a1.14 1.14 0 0 1-.85.33l-6.97-.19a37.59 37.59 0 0 1-1.26-12.53v-.05a.68.68 0 0 0-1.06-.56l-.56.38a1.2 1.2 0 0 0-.51.7c-1.2 4.52-2.82 9.73-7.53 11.87-3.58 1.62-10.7-.4-13.17 2.22a17.7 17.7 0 0 0-3.5 5.67c-1.42-1.03-3.58-1.74-6.48-2.11a.7.7 0 0 1-.59-.89c1.4-5.14.64-9.87-2.31-14.18a1.67 1.67 0 0 1-.29-.91c-.09-3.03.38-6.91-3.04-8.29a12.5 12.5 0 0 0-10.85.45c-2 1.02-6.01-2.04-7.74-3.1-3.97-2.43-7.75-2.96-12.02-.97-3.75 1.74-6.79 4.61-10.06.08a9.17 9.17 0 0 0-4.4-3.29 1.38 1.38 0 0 0-.94-.01 66.25 66.25 0 0 0-3.52 1.29c-4.44 1.75-6.24-.87-10.29-.98a61.83 61.83 0 0 0-3.11-.02h-.03a.66.66 0 0 1-.66-.66c0-.3.2-.57.5-.64 2.69-.77 5.3-.54 7.84.67a1.39 1.39 0 0 0 1.04.06c5.11-1.7 3.94-7.34.46-9.93a1.35 1.35 0 0 1-.54-1.08 1.36 1.36 0 0 1 1.71-1.3c1.87.53 3.7 1.58 5.5 3.13 2.75 2.39 10.78-1.89 13.38-3.58 4.57-2.98 4.51-5.84 4.44-10.97a.6.6 0 0 1 .53-.66c5.15-1.08 8.88-3.8 11.19-8.15z" fill="#ff932f"/>
  <path d="m79.56 449.88 1.6-.31c1.04-.2 2.1.23 2.72 1.09l1.02 1.44a2.71 2.71 0 0 1-.93 3.95l-2.38 1.29a2.7 2.7 0 0 1-1.28.32 2.72 2.72 0 0 1-2.7-2.45l-.24-2.4a2.72 2.72 0 0 1 2.19-2.93z" fill="#fffdef"/>
  <path d="M381.9 457.71c.09.7.28 1.02.58.95.38-.09.75-.2 1.11-.36.3-.13.56-.07.77.18l3.19 3.65c1.15 6.62 2.5 12.05.53 18.63-.13.45-.13.73 0 .84.17.15.48.33.92.54-6.71 2.81-12.37 6.4-16.97 10.77a1.44 1.44 0 0 0-.19 1.87l7.19 10.29c-2.29 1.34-9.59 6.01-7.49 9.55 2.01 3.4 5.93 10.08 2.47 13.47-1.53 1.5-4.74 1.84-6.9 2.69a1.55 1.55 0 0 0-.97 1.53l.42 6.82c.02.3-.07.6-.25.84a10.6 10.6 0 0 1-8.18 4.61c-3.13.2-6.69-1.66-10.44-1.74.35-1.13.1-1.97-.77-2.5a1.23 1.23 0 0 1-.58-.92l-.32-3.25a.95.95 0 0 0-.4-.69l-10.15-7.16a1.1 1.1 0 0 0-1.17-.11l-4.76 2.17-.29-1.61c-.07-.37.07-.64.42-.8 3.17-1.45 3.93-.48 4.62-4.63 1.03-6.17-.87-11.4-5.71-15.69-3.51-3.12-9.33-3.75-10.21 2.2a.76.76 0 0 1-1.5.01c-.13-.77.14-1.58.8-2.43l5.51-7.01c.2-.26.48-.46.8-.58a19 19 0 0 0 7.33-4.84 1.78 1.78 0 0 1 2.72.15c2.88 3.84 4.68 7.22 10.35 6.05 2.4-.5 3.45-2.45 3.18-5.84-.08-.95.33-1.57 1.23-1.88a20.54 20.54 0 0 0 8.36-5.59c2.39-2.55 2.46-4.47 1.22-7.59a1.52 1.52 0 0 1 1.03-2.03c3.83-1 6.14-3.52 6.95-7.54a1.71 1.71 0 0 1 2.13-1.31c3.12.87 6.2.79 9.26-.25a1 1 0 0 0 .63-.62c1.05-3.01.33-5.2.01-8a.84.84 0 0 1 .38-.81l3.14-2.03z" fill="#ff932f"/>
  <path d="M225.78 479.34c-4.17 4.2-10.3 8.99-12.61 14.25l-.02.04a1.43 1.43 0 0 1-1.9.68l-.03-.02c-7.31-3.68-12.26-.17-17.27 5.07a.67.67 0 0 1-1.13-.29l-.12-.49a1 1 0 0 1 .21-.93c2.93-3.45 5.54-5.09 5.28-10.61a17.7 17.7 0 0 1 3.5-5.67c2.47-2.62 9.59-.6 13.17-2.22 4.71-2.14 6.33-7.35 7.53-11.87a1.21 1.21 0 0 1 .51-.7l.56-.38a.68.68 0 0 1 1.06.56v.05c-.27 4.42.15 8.6 1.26 12.53z" fill="#ff7123"/>
  <circle cx="296.21" cy="481.51" r="6.55" fill="#fffdef"/>
  <path d="M158.01 487.31a36.88 36.88 0 0 0 6.68-4.13c.34-.25.69-.24 1.04.04.27.21.27.44.02.67-10.5 9.76-25.63 14.18-33.19 27.1-2.23 3.8-3.71 8.72-5.22 13.3-2.07 6.32-6.35 9.49-13.09 5.31a1.56 1.56 0 0 1-.74-1.19c-.38-4.22-.46-9.15-1.95-12.75-3.19-7.7-8.74-9.36-16.52-10.28a.5.5 0 0 1-.41-.66c1.41-4.07 1.98-8.31 4.28-11.99a20.63 20.63 0 0 0 3.14-10.84.62.62 0 0 1 .52-.6c3.78-.6 7.27.4 8.99-4.19a.64.64 0 0 1 1.07-.2.62.62 0 0 1 .14.26c3.04 11.95 18.82 10.59 21.69-.79a1.77 1.77 0 0 1 1.72-1.34c.67 0 1.28.38 1.58.98 3.96 7.87 10.05 9.67 18.35 9.71a.86.86 0 0 1 .78.5l.37.81c.15.35.4.44.75.28z" fill="#ffac3e"/>
  <path d="M389 482.14c3.4.3 5.68 1.96 6.83 5.01 3.7 9.81-7.49 12.26-13.94 13.49a.91.91 0 0 0-.72.66 8.12 8.12 0 0 1-2.14 3.77l-7.19-10.29a1.44 1.44 0 0 1 .19-1.87c4.6-4.37 10.26-7.96 16.97-10.77z" fill="#ff7123"/>
  <path d="M281.97 568.44c.77 4.03 2.09 7.4 3.95 10.12 1.84 2.7 4.07 3.87 6.7 3.49l6.71 12.09-8.72 4.45c-.93-1.4-2.41-2.2-4.44-2.4a.73.73 0 0 0-.78.43c-2.75 5.49-7.05 6.65-12.88 3.5a1.14 1.14 0 0 1-.51-.55l-1.15-2.57c-.16-.35-.43-.5-.8-.45-4.79.64-8.34-.9-10.66-4.64-1.02-1.64-.94-4.17-1.38-6.15-.1-.47-.39-.67-.87-.61l-3.55.46a1.01 1.01 0 0 0-.65 1.63c2.97 3.7 2.69 7.22-.83 10.59-3 2.86 1.98 7.29 1.65 10.94a9.3 9.3 0 0 1-15.45 6.13c-1.3-1.13-3.29-4.2-5.96-9.22-.1-2.47-.6-5.05-1.5-7.73-.6-1.76-1.88-2.64-3.85-2.64-2.37 0-4.37.05-6.01.16-1.6.1-2.4-.61-2.44-2.14a1.25 1.25 0 0 1 .81-1.19 33.94 33.94 0 0 1 10.52-2.1.9.9 0 0 0 .67-1.45c-1.97-2.5-3.82-7.62-7.82-6.34-5.31 1.7-12.07 4.94-14.81-2.65a.64.64 0 0 1 .69-.85.7.7 0 0 1 .28.12l3.79 2.77a1.45 1.45 0 0 0 .83.28c3.5.03 6.49-1.18 8.97-3.65a.85.85 0 0 0 .17-.93c-.73-1.64-2.04-2.73-2.19-4.46-.13-1.55.22-2.78 1.07-3.68a148.02 148.02 0 0 0 6.77-7.65c3.65-4.42 3.25-11.27 2.13-16.48-.19-1.98-1.27-3.6-3.25-4.86a.87.87 0 0 1-.11-1.37 8.7 8.7 0 0 1 5.67-2.27c.35-.01.7.13.93.4 1.43 1.67 2.74 4.62 4.61 5.31 3.01 1.11 4.88-2.88 4.85-5.44 0-.33-.1-.63-.28-.9a118.81 118.81 0 0 1-5.78-9.29 24.85 24.85 0 0 0-7.9-8.65.58.58 0 0 1-.06-.91c3.9-3.45 6-7.8 6.33-13.07a.57.57 0 0 1 1.08-.22l2.76 5.69c2.55 5.32-1.44 10.5-.25 15.89.94 4.28 3.5 7.35 7.66 9.21.32.15.36.35.12.6-1.16 1.19-1.92 1.89-2.48 3.61a20.2 20.2 0 0 1-2.95 5.35c-1.48 2.05-1.45 5.72-1.28 8.5.36 5.68 2.98 10.15 7.85 13.41.27.18.57.24.89.19 5.2-.81 7.98-3.83 8.37-9.05a.9.9 0 0 1 1.32-.72 13.16 13.16 0 0 0 12.23.53.99.99 0 0 1 1.27 1.37c-2.22 4.23-4.86 10.84 3.23 10.95 2.93.04 5.17-.26 6.71-.89z" fill="#ff932f"/>
  <path d="M175.72 514.29c-.72-.81-1.68-1.23-2.5-2.03a1.04 1.04 0 0 1-.28-1 9.82 9.82 0 0 1 2.29-4.23 1.18 1.18 0 0 1 2.04.65 13.54 13.54 0 0 0 5.78 9.74.57.57 0 0 1-.25 1.03c-3.11.45-5.21-2.08-7.08-4.16zm153.82 16.09 4.76-2.17a1.1 1.1 0 0 1 1.17.11l10.15 7.16a.95.95 0 0 1 .4.69l.32 3.25a1.22 1.22 0 0 0 .58.92c.87.53 1.12 1.37.77 2.5a5.91 5.91 0 0 0-3.41 3.91c-.1.34.03.56.37.65 6.67 1.92 6.39 7 7.32 12.77l.09 1.3c.03.4-.08.44-.33.13l-1.02-1.27a1.38 1.38 0 0 0-.81-.49c-4.57-.88-8.97-2.9-13.26-3.21-2.66-.19-8.94-.79-10.66 1.6-2 2.77-4.12 4.75-6.37 5.94-2.85 1.5-2.33 3.77-3.12 6.43a.79.79 0 0 1-.53.55 6.62 6.62 0 0 1-6.56-1.04 1.24 1.24 0 0 1-.48-.85c-.2-1.75.17-5.21-.68-6.51-1.15-1.75-3.38-.78-4.78-.68a47.64 47.64 0 0 0-15.01 3.64c-1.35.57-2.58.42-3.96.36a39.13 39.13 0 0 0 1.49-14.98.9.9 0 0 1 .9-1 .9.9 0 0 1 .37.09c17.61 7.93 24.1-28.35.65-14.63a.53.53 0 0 1-.78-.34.5.5 0 0 1-.01-.16c.3-3.36 1.67-6.2 4.1-8.51a1.42 1.42 0 0 1 1.05-.39c4 .23 7.29-1.13 9.84-4.07a1.34 1.34 0 0 1 .76-.44c11.5-2.13 8.2 21.76 23.19 15.59 2.75-1.13 3.91-3.41 3.49-6.85z" fill="#ffac3e"/>
  <path d="M186.21 575.37c-1.57 5.7-1.57 11 0 15.92.48 1.5 1.6 3.44 3.37 5.83a47.26 47.26 0 0 1 5.69 9.99 1.74 1.74 0 0 0 .59.75c1.39 1.01 2 2.29 1.83 3.82-.16 1.45-1.55 2.7-1.95 4.45-4.65 2.04-8.73 1.48-12.25-1.67-3.58-3.2-3.33-11.68-9.58-10.02-.32.09-.5.3-.52.62-.85 9.72-14.6 14.2-16.13 2.45-.53-4.02-1.32-7.63-6.5-6.63a1 1 0 0 0-.74.58c-1.53 3.42-3.95 4.69-7.27 3.81-8.35-2.23-5.76-15.23-11.96-16.41a35.3 35.3 0 0 0-8.51-.59c-.31.01-.51.18-.59.49-1.27 5.34-2.65 10.93-9.22 11.16-1.27.04-2.42-.75-3.47-2.38a140.4 140.4 0 0 0-6.96-9.93c1.6-.28 2.57-1.63 2.92-4.04a17.6 17.6 0 0 0-1.59-10.3 1.38 1.38 0 0 1-.03-1.13 20.35 20.35 0 0 1 5.13-7.26.61.61 0 0 1 .92.11c1.6 2.41 3.58 5.72 6.44 6.42 5.72 1.39 6.13-3.81 7.01-7.63a.88.88 0 0 1 .81-.68l2.91-.13a.81.81 0 0 1 .83.65c.87 4.26 3.25 8.56 8.11 8.9 4.02.28 6.04-1.5 6.07-5.35a.5.5 0 0 1 .73-.43 6.1 6.1 0 0 0 6.03.03 1.72 1.72 0 0 0 .75-.76c2.63-5.2 1.18-8.94-3.12-12.67a105.57 105.57 0 0 1-6.37-5.99 1.09 1.09 0 0 1 .29-1.74 93.04 93.04 0 0 0 13.69-8.37 9.18 9.18 0 0 0 3.36-4.41.83.83 0 0 1 1.6.1c1.03 4.72 4.79 2.67 8.03 2.41h.04a.55.55 0 0 1 .54.67 12.02 12.02 0 0 1-2.19 4.73c-5.09 6.31-6.52 13.27-7.62 21.24-.66 4.73 2.48 8.13 6.46 10.05a1.2 1.2 0 0 1 .39 1.83c-3.2 3.8-.58 9.19 4.31 8.91 4.54-.26 7.29-4.96 8.15-9a.54.54 0 0 1 .8-.35c3.28 1.92 4.56 4.06 8.77 1.95z" fill="#ff932f"/>
  <path d="M230.43 545.07c1.12 5.21 1.52 12.06-2.13 16.48a148.02 148.02 0 0 1-6.77 7.65c-.85.9-1.2 2.13-1.07 3.68.15 1.73 1.46 2.82 2.19 4.46a.85.85 0 0 1-.17.93 12.08 12.08 0 0 1-8.97 3.65 1.43 1.43 0 0 1-.83-.28l-3.79-2.77a.63.63 0 0 0-.28-.12.64.64 0 0 0-.69.85c2.74 7.59 9.5 4.35 14.81 2.65 4-1.28 5.85 3.84 7.82 6.34a.9.9 0 0 1-.67 1.45 34 34 0 0 0-10.52 2.1 1.25 1.25 0 0 0-.81 1.19c.03 1.53.85 2.24 2.44 2.14 1.64-.1 3.64-.16 6.01-.16 1.97 0 3.25.88 3.85 2.64.9 2.68 1.4 5.26 1.5 7.73-3.4-3.34-6.06-3.29-8 .15-3.21 5.69-5.54 11.65-13.5 10.73-3.1-.35-5.33-3.32-7.56-5.4a1.74 1.74 0 0 0-2.73.45 10.99 10.99 0 0 1-4.82 4.52c.4-1.75 1.79-3 1.95-4.45.17-1.53-.44-2.8-1.83-3.82a1.75 1.75 0 0 1-.59-.75 47.26 47.26 0 0 0-5.69-9.99c-1.77-2.39-2.89-4.33-3.37-5.83-1.57-4.92-1.57-10.23 0-15.92l2.31-7.34c.73-2.24 3.87-3.5 4.86-5.76 1.17-2.68.53-4.49-.92-7.24a21.69 21.69 0 0 1-2.46-10.31.69.69 0 0 1 .93-.64 8.14 8.14 0 0 1 3.22 2.25c.24.27.55.46.9.56 6.88 1.9 9.17-3.08 10.91-8.88.11-.39.42-.7.82-.79a5.6 5.6 0 0 1 5.64 1.55.96.96 0 0 1 .25.91c-1.67 6.98-.26 13.13 8.4 11.22 3.5-.77 6.63-2.72 9.36-5.83z" fill="#ffac3e"/>
  <path d="M351.97 560.17c6.61 5.18.07 10.86-5.84 11.48a.8.8 0 0 0-.7.54c-1.75 4.6-.97 6.94-7.15 7.22a1.91 1.91 0 0 0-1.75 1.4c-3 10.73-16.19 10.17-23.97 6.06l-9.84-5.28c-4.55-2.48-7.92-2.33-10.1.46-2.63.38-4.86-.78-6.7-3.49a26.64 26.64 0 0 1-3.95-10.12c.53-1 1.37-1.79 2.52-2.37 1.38.06 2.61.21 3.96-.36a47.64 47.64 0 0 1 15.01-3.64c1.4-.1 3.63-1.07 4.78.68.85 1.3.48 4.76.68 6.51a1.23 1.23 0 0 0 .48.85 6.62 6.62 0 0 0 6.56 1.04.79.79 0 0 0 .53-.55c.79-2.66.27-4.93 3.12-6.43 2.25-1.19 4.38-3.17 6.37-5.94 1.72-2.39 8-1.79 10.66-1.6 4.29.31 8.69 2.33 13.26 3.21a1.37 1.37 0 0 1 .81.49l1.02 1.27c.25.3.36.26.33-.13l-.09-1.3z" fill="#ff7123"/>
  <path d="M98.39 587.73c-3.57 3.65-8 6.84-12.62 2.76-3.27-2.88-4.78-6.13-4.53-9.75a1.64 1.64 0 0 1 .45-1.02c2.78-2.93 4.07-6.2 3.86-9.8l.1-2.38c0-.33.17-.46.49-.39 1.64.32 3.13.9 4.46 1.76a8.47 8.47 0 0 1 2.96 3.52 49.78 49.78 0 0 1 4.83 15.3z" fill="#fffdef"/>
</svg>
